# xmcd
#
# Track frame offsets: 
#        150
#        14710
#        33930
#        48455
#        65967
#        79322
#        98089
#        112514
#        130207
#        148977
#        161380
#        178660
#        193930
#        209259
#
# Disc length: 3092 seconds
#
# Revision: 2
# Processed by: cddbd v1.5.2PL0 Copyright (c) Steve Scherf et al.
# Submitted via: ExactAudioCopy v0.95a5
#
DISCID=ca0c120e
DTITLE=Gram Parsons and the Flying Burrito Brothers - Live At The Aval
DTITLE=on Ballroom [2 April 6, 1969]
DYEAR=2007
DGENRE=Cosmic American Music
TTITLE0=Medley: Undo the Right/Somebody's Back in Town
TTITLE1=She Once Lived Here
TTITLE2=Mental Revenge
TTITLE3=We've Got To Get Ourselves Together
TTITLE4=Lucille
TTITLE5=Sin City
TTITLE6=You Win Again
TTITLE7=Hot Burrito #1
TTITLE8=Hot Burrito #2
TTITLE9=You're Still On My Mind
TTITLE10=Train Song
TTITLE11=Long Black Limousine
TTITLE12=Dream Baby (How Long Must I Dream)
TTITLE13=Do Right Woman
EXTD=
EXTT0=
EXTT1=
EXTT2=
EXTT3=
EXTT4=
EXTT5=
EXTT6=
EXTT7=
EXTT8=
EXTT9=
EXTT10=
EXTT11=
EXTT12=
EXTT13=
PLAYORDER=
